%TF.GenerationSoftware,KiCad,Pcbnew,10.0.1*%
%TF.CreationDate,2026-08-21T01:43:21+02:00*%
%TF.ProjectId,HP203B-I2C-sensor,48503230-3342-42d4-9932-432d73656e73,rev?*%
%TF.SameCoordinates,Original*%
%TF.FileFunction,Copper,L1,Top*%
%TF.FilePolarity,Positive*%
%FSLAX46Y46*%
G04 Gerber Fmt 4.6, Leading zero omitted, Abs format (unit mm)*
G04 Created by KiCad (PCBNEW 10.0.1) date 2026-08-21 01:43:21*
%MOMM*%
%LPD*%
G01*
G04 APERTURE LIST*
G04 Aperture macros list*
%AMRoundRect*
0 Rectangle with rounded corners*
0 $1 Rounding radius*
0 $2 $3 $4 $5 $6 $7 $8 $9 X,Y pos of 4 corners*
0 Add a 4 corners polygon primitive as box body*
4,1,4,$2,$3,$4,$5,$6,$7,$8,$9,$2,$3,0*
0 Add four circle primitives for the rounded corners*
1,1,$1+$1,$2,$3*
1,1,$1+$1,$4,$5*
1,1,$1+$1,$6,$7*
1,1,$1+$1,$8,$9*
0 Add four rect primitives between the rounded corners*
20,1,$1+$1,$2,$3,$4,$5,0*
20,1,$1+$1,$4,$5,$6,$7,0*
20,1,$1+$1,$6,$7,$8,$9,0*
20,1,$1+$1,$8,$9,$2,$3,0*%
G04 Aperture macros list end*
%TA.AperFunction,SMDPad,CuDef*%
%ADD10R,1.400000X0.500000*%
%TD*%
%TA.AperFunction,SMDPad,CuDef*%
%ADD11R,1.200000X0.500000*%
%TD*%
%TA.AperFunction,SMDPad,CuDef*%
%ADD12RoundRect,0.135000X-0.135000X-0.185000X0.135000X-0.185000X0.135000X0.185000X-0.135000X0.185000X0*%
%TD*%
%TA.AperFunction,ComponentPad*%
%ADD13R,1.700000X1.700000*%
%TD*%
%TA.AperFunction,ComponentPad*%
%ADD14C,1.700000*%
%TD*%
%TA.AperFunction,SMDPad,CuDef*%
%ADD15RoundRect,0.140000X0.170000X-0.140000X0.170000X0.140000X-0.170000X0.140000X-0.170000X-0.140000X0*%
%TD*%
%TA.AperFunction,SMDPad,CuDef*%
%ADD16RoundRect,0.150000X0.150000X0.625000X-0.150000X0.625000X-0.150000X-0.625000X0.150000X-0.625000X0*%
%TD*%
%TA.AperFunction,SMDPad,CuDef*%
%ADD17RoundRect,0.250000X0.350000X0.650000X-0.350000X0.650000X-0.350000X-0.650000X0.350000X-0.650000X0*%
%TD*%
%TA.AperFunction,SMDPad,CuDef*%
%ADD18RoundRect,0.150000X-0.150000X-0.625000X0.150000X-0.625000X0.150000X0.625000X-0.150000X0.625000X0*%
%TD*%
%TA.AperFunction,SMDPad,CuDef*%
%ADD19RoundRect,0.250000X-0.350000X-0.650000X0.350000X-0.650000X0.350000X0.650000X-0.350000X0.650000X0*%
%TD*%
%TA.AperFunction,SMDPad,CuDef*%
%ADD20RoundRect,0.135000X0.135000X0.185000X-0.135000X0.185000X-0.135000X-0.185000X0.135000X-0.185000X0*%
%TD*%
%TA.AperFunction,ViaPad*%
%ADD21C,0.600000*%
%TD*%
%TA.AperFunction,Conductor*%
%ADD22C,0.200000*%
%TD*%
%TA.AperFunction,Conductor*%
%ADD23C,0.300000*%
%TD*%
G04 APERTURE END LIST*
D10*
%TO.P,U1,1,INT1_1*%
%TO.N,unconnected-(U1-INT1-Pad1)*%
X150300300Y-113449900D03*
D11*
%TO.P,U1,2,GND_2*%
%TO.N,GND*%
X150200200Y-114349300D03*
%TO.P,U1,3,VDD_3*%
%TO.N,+3.3V*%
X150200200Y-115248200D03*
%TO.P,U1,4,NC_4*%
%TO.N,unconnected-(U1-NC-Pad4)*%
X150200200Y-116149900D03*
%TO.P,U1,5,SCL_5*%
%TO.N,/SCL*%
X153000000Y-116147300D03*
%TO.P,U1,6,SDA_6*%
%TO.N,/SDA*%
X153000000Y-115248200D03*
%TO.P,U1,7,INT0_7*%
%TO.N,unconnected-(U1-INT0-Pad7)*%
X153000000Y-114349300D03*
%TO.P,U1,8,CSB_8*%
%TO.N,+3.3V*%
X153000000Y-113449900D03*
%TD*%
D12*
%TO.P,R6,1*%
%TO.N,+3.3V*%
X150490000Y-118600000D03*
%TO.P,R6,2*%
%TO.N,/SDA*%
X151510000Y-118600000D03*
%TD*%
D13*
%TO.P,J2,1,Pin_1_1*%
%TO.N,/SCL*%
X158000000Y-117310000D03*
D14*
%TO.P,J2,2,Pin_2_2*%
%TO.N,/SDA*%
X158000000Y-114770000D03*
%TO.P,J2,3,Pin_3_3*%
%TO.N,+3.3V*%
X158000000Y-112230000D03*
%TO.P,J2,4,Pin_4_4*%
%TO.N,GND*%
X158000000Y-109690000D03*
%TD*%
D15*
%TO.P,C1,1*%
%TO.N,+3.3V*%
X148700000Y-115280000D03*
%TO.P,C1,2*%
%TO.N,GND*%
X148700000Y-114320000D03*
%TD*%
D16*
%TO.P,J3,1,Pin_1_1*%
%TO.N,GND*%
X152500000Y-106300000D03*
%TO.P,J3,2,Pin_2_2*%
%TO.N,+3.3V*%
X151500000Y-106300000D03*
%TO.P,J3,3,Pin_3_3*%
%TO.N,/SDA*%
X150500000Y-106300000D03*
%TO.P,J3,4,Pin_4_4*%
%TO.N,/SCL*%
X149500000Y-106300000D03*
D17*
%TO.P,J3,MP*%
%TO.N,N/C*%
X153800000Y-102425000D03*
X148200000Y-102425000D03*
%TD*%
D18*
%TO.P,J1,1,Pin_1_1*%
%TO.N,GND*%
X149500000Y-121725000D03*
%TO.P,J1,2,Pin_2_2*%
%TO.N,+3.3V*%
X150500000Y-121725000D03*
%TO.P,J1,3,Pin_3_3*%
%TO.N,/SDA*%
X151500000Y-121725000D03*
%TO.P,J1,4,Pin_4_4*%
%TO.N,/SCL*%
X152500000Y-121725000D03*
D19*
%TO.P,J1,MP*%
%TO.N,N/C*%
X148200000Y-125600000D03*
X153800000Y-125600000D03*
%TD*%
D20*
%TO.P,R9,1*%
%TO.N,+3.3V*%
X153510000Y-118600000D03*
%TO.P,R9,2*%
%TO.N,/SCL*%
X152490000Y-118600000D03*
%TD*%
D21*
%TO.N,GND*%
X146600000Y-122000000D03*
X155100000Y-122700000D03*
X155200000Y-119200000D03*
X146200000Y-119000000D03*
X155100000Y-104900000D03*
X155100000Y-108800000D03*
X146900000Y-104900000D03*
X151300000Y-111800000D03*
%TO.N,/SCL*%
X155600000Y-115400000D03*
X150975735Y-109824265D03*
%TO.N,/SDA*%
X154400000Y-114200000D03*
X153200000Y-111200000D03*
%TD*%
%TO.N,GND*%
D22*
X148700000Y-114320000D02*
X150170900Y-114320000D01*
X150170900Y-114320000D02*
X150200200Y-114349300D01*
%TO.N,+3.3V*%
D23*
X154600000Y-113300000D02*
X153149900Y-113300000D01*
X152549600Y-113449900D02*
X153000000Y-113449900D01*
X151500000Y-107500000D02*
X151500000Y-106300000D01*
X150500000Y-118800000D02*
X150500000Y-121725000D01*
X158000000Y-112230000D02*
X156200000Y-112230000D01*
X150490000Y-118600000D02*
X150490000Y-118790000D01*
X150500000Y-122900000D02*
X151200000Y-123600000D01*
X148700000Y-115280000D02*
X150168400Y-115280000D01*
X152700000Y-123600000D02*
X153510000Y-122790000D01*
X151399750Y-114599750D02*
X152549600Y-113449900D01*
X150200200Y-115248200D02*
X150751300Y-115248200D01*
X151399750Y-114599750D02*
X151200000Y-114799500D01*
X156200000Y-112230000D02*
X155670000Y-112230000D01*
X156200000Y-112200000D02*
X151500000Y-107500000D01*
X150490000Y-118790000D02*
X150500000Y-118800000D01*
X150751300Y-115248200D02*
X151399750Y-114599750D01*
X151200000Y-117200000D02*
X150490000Y-117910000D01*
X150490000Y-117910000D02*
X150490000Y-118600000D01*
X151200000Y-114799500D02*
X151200000Y-117200000D01*
X151200000Y-123600000D02*
X152700000Y-123600000D01*
D22*
X150168400Y-115280000D02*
X150200200Y-115248200D01*
D23*
X156200000Y-112230000D02*
X156200000Y-112200000D01*
X155670000Y-112230000D02*
X154600000Y-113300000D01*
X153510000Y-122790000D02*
X153510000Y-118600000D01*
X150500000Y-121725000D02*
X150500000Y-122900000D01*
%TO.N,/SCL*%
D22*
X155600000Y-116300000D02*
X155600000Y-115400000D01*
X153152700Y-116300000D02*
X155600000Y-116300000D01*
X153000000Y-116200000D02*
X153000000Y-116147300D01*
X152490000Y-116710000D02*
X153000000Y-116200000D01*
X155600000Y-116300000D02*
X156990000Y-116300000D01*
X152500000Y-121725000D02*
X152500000Y-118610000D01*
X150975735Y-109824265D02*
X149500000Y-108348530D01*
X152500000Y-118610000D02*
X152490000Y-118600000D01*
X156990000Y-116300000D02*
X158000000Y-117310000D01*
X152490000Y-118600000D02*
X152490000Y-116710000D01*
X149500000Y-108348530D02*
X149500000Y-106300000D01*
X153000000Y-116147300D02*
X153152700Y-116300000D01*
%TO.N,/SDA*%
X150500000Y-108500000D02*
X150500000Y-106300000D01*
X153200000Y-111200000D02*
X150500000Y-108500000D01*
X152449100Y-115248200D02*
X153000000Y-115248200D01*
X155100000Y-114800000D02*
X157970000Y-114800000D01*
X151700000Y-117500000D02*
X151700000Y-115997300D01*
X151500000Y-118820000D02*
X151500000Y-121725000D01*
X151510000Y-118600000D02*
X151510000Y-117690000D01*
X151510000Y-117690000D02*
X151700000Y-117500000D01*
X153000000Y-115248200D02*
X154400000Y-115248200D01*
X151700000Y-115997300D02*
X152449100Y-115248200D01*
X155048200Y-114800000D02*
X155100000Y-114800000D01*
X154400000Y-115248200D02*
X154400000Y-114200000D01*
X154400000Y-115248200D02*
X154600000Y-115248200D01*
X157970000Y-114800000D02*
X158000000Y-114770000D01*
X154600000Y-115248200D02*
X155048200Y-114800000D01*
%TD*%
%TA.AperFunction,Conductor*%
%TO.N,GND*%
G36*
X147167438Y-101220185D02*
G01*
X147213193Y-101272989D01*
X147223137Y-101342147D01*
X147205938Y-101389594D01*
X147189817Y-101415730D01*
X147165187Y-101455663D01*
X147165186Y-101455666D01*
X147110001Y-101622203D01*
X147110001Y-101622204D01*
X147110000Y-101622204D01*
X147099500Y-101724983D01*
X147099500Y-103125001D01*
X147099501Y-103125018D01*
X147110000Y-103227796D01*
X147110001Y-103227799D01*
X147165185Y-103394331D01*
X147165186Y-103394334D01*
X147257288Y-103543656D01*
X147381344Y-103667712D01*
X147530666Y-103759814D01*
X147697203Y-103814999D01*
X147799991Y-103825500D01*
X148600008Y-103825499D01*
X148600016Y-103825498D01*
X148600019Y-103825498D01*
X148656302Y-103819748D01*
X148702797Y-103814999D01*
X148869334Y-103759814D01*
X149018656Y-103667712D01*
X149142712Y-103543656D01*
X149234814Y-103394334D01*
X149289999Y-103227797D01*
X149300500Y-103125009D01*
X149300499Y-101724992D01*
X149289999Y-101622203D01*
X149234814Y-101455666D01*
X149194061Y-101389595D01*
X149175622Y-101322204D01*
X149196545Y-101255541D01*
X149250187Y-101210771D01*
X149299601Y-101200500D01*
X152700399Y-101200500D01*
X152767438Y-101220185D01*
X152813193Y-101272989D01*
X152823137Y-101342147D01*
X152805938Y-101389594D01*
X152789817Y-101415730D01*
X152765187Y-101455663D01*
X152765186Y-101455666D01*
X152710001Y-101622203D01*
X152710001Y-101622204D01*
X152710000Y-101622204D01*
X152699500Y-101724983D01*
X152699500Y-103125001D01*
X152699501Y-103125018D01*
X152710000Y-103227796D01*
X152710001Y-103227799D01*
X152765185Y-103394331D01*
X152765186Y-103394334D01*
X152857288Y-103543656D01*
X152981344Y-103667712D01*
X153130666Y-103759814D01*
X153297203Y-103814999D01*
X153399991Y-103825500D01*
X154200008Y-103825499D01*
X154200016Y-103825498D01*
X154200019Y-103825498D01*
X154256302Y-103819748D01*
X154302797Y-103814999D01*
X154469334Y-103759814D01*
X154618656Y-103667712D01*
X154742712Y-103543656D01*
X154834814Y-103394334D01*
X154889999Y-103227797D01*
X154900500Y-103125009D01*
X154900499Y-101724992D01*
X154889999Y-101622203D01*
X154834814Y-101455666D01*
X154794061Y-101389595D01*
X154775622Y-101322204D01*
X154796545Y-101255541D01*
X154850187Y-101210771D01*
X154899601Y-101200500D01*
X158960118Y-101200500D01*
X158993908Y-101200500D01*
X159006061Y-101201097D01*
X159016051Y-101202080D01*
X159143824Y-101214665D01*
X159167654Y-101219404D01*
X159294274Y-101257814D01*
X159316722Y-101267113D01*
X159433407Y-101329482D01*
X159453618Y-101342987D01*
X159555891Y-101426920D01*
X159573079Y-101444108D01*
X159657012Y-101546381D01*
X159670517Y-101566592D01*
X159732883Y-101683269D01*
X159742186Y-101705728D01*
X159780593Y-101832339D01*
X159785335Y-101856180D01*
X159798903Y-101993938D01*
X159799500Y-102006092D01*
X159799500Y-125993907D01*
X159798903Y-126006060D01*
X159798903Y-126006061D01*
X159785335Y-126143819D01*
X159780593Y-126167660D01*
X159742186Y-126294271D01*
X159732883Y-126316730D01*
X159670517Y-126433407D01*
X159657012Y-126453618D01*
X159573079Y-126555891D01*
X159555891Y-126573079D01*
X159453618Y-126657012D01*
X159433407Y-126670517D01*
X159316730Y-126732883D01*
X159294271Y-126742186D01*
X159167660Y-126780593D01*
X159143819Y-126785335D01*
X159006062Y-126798903D01*
X158993908Y-126799500D01*
X154915021Y-126799500D01*
X154847982Y-126779815D01*
X154802227Y-126727011D01*
X154792283Y-126657853D01*
X154809481Y-126610405D01*
X154834814Y-126569334D01*
X154889999Y-126402797D01*
X154900500Y-126300009D01*
X154900499Y-124899992D01*
X154889999Y-124797203D01*
X154834814Y-124630666D01*
X154742712Y-124481344D01*
X154618656Y-124357288D01*
X154469334Y-124265186D01*
X154302797Y-124210001D01*
X154302795Y-124210000D01*
X154200010Y-124199500D01*
X153399998Y-124199500D01*
X153399980Y-124199501D01*
X153324004Y-124207263D01*
X153255311Y-124194493D01*
X153204427Y-124146612D01*
X153187507Y-124078822D01*
X153209923Y-124012646D01*
X153223722Y-123996224D01*
X153526233Y-123693713D01*
X156699500Y-123693713D01*
X156699500Y-123906287D01*
X156732754Y-124116243D01*
X156781148Y-124265185D01*
X156798444Y-124318414D01*
X156894951Y-124507820D01*
X157019890Y-124679786D01*
X157170213Y-124830109D01*
X157342179Y-124955048D01*
X157342181Y-124955049D01*
X157342184Y-124955051D01*
X157531588Y-125051557D01*
X157733757Y-125117246D01*
X157943713Y-125150500D01*
X157943714Y-125150500D01*
X158156286Y-125150500D01*
X158156287Y-125150500D01*
X158366243Y-125117246D01*
X158568412Y-125051557D01*
X158757816Y-124955051D01*
X158779789Y-124939086D01*
X158929786Y-124830109D01*
X158929788Y-124830106D01*
X158929792Y-124830104D01*
X159080104Y-124679792D01*
X159080106Y-124679788D01*
X159080109Y-124679786D01*
X159205048Y-124507820D01*
X159205047Y-124507820D01*
X159205051Y-124507816D01*
X159301557Y-124318412D01*
X159367246Y-124116243D01*
X159400500Y-123906287D01*
X159400500Y-123693713D01*
X159367246Y-123483757D01*
X159301557Y-123281588D01*
X159205051Y-123092184D01*
X159205049Y-123092181D01*
X159205048Y-123092179D01*
X159080109Y-122920213D01*
X158929786Y-122769890D01*
X158757820Y-122644951D01*
X158568414Y-122548444D01*
X158568413Y-122548443D01*
X158568412Y-122548443D01*
X158366243Y-122482754D01*
X158366241Y-122482753D01*
X158366240Y-122482753D01*
X158204957Y-122457208D01*
X158156287Y-122449500D01*
X157943713Y-122449500D01*
X157895042Y-122457208D01*
X157733760Y-122482753D01*
X157531585Y-122548444D01*
X157342179Y-122644951D01*
X157170213Y-122769890D01*
X157019890Y-122920213D01*
X156894951Y-123092179D01*
X156798444Y-123281585D01*
X156732753Y-123483760D01*
X156699500Y-123693713D01*
X153526233Y-123693713D01*
X154015273Y-123204673D01*
X154015277Y-123204669D01*
X154086465Y-123098127D01*
X154135501Y-122979744D01*
X154138619Y-122964069D01*
X154160500Y-122854069D01*
X154160500Y-119195684D01*
X154177768Y-119132563D01*
X154232869Y-119039393D01*
X154277665Y-118885204D01*
X154280500Y-118849181D01*
X154280499Y-118350820D01*
X154277665Y-118314796D01*
X154232869Y-118160607D01*
X154151135Y-118022402D01*
X154151133Y-118022400D01*
X154151130Y-118022396D01*
X154037603Y-117908869D01*
X154037595Y-117908863D01*
X153899393Y-117827131D01*
X153899388Y-117827129D01*
X153745208Y-117782335D01*
X153745202Y-117782334D01*
X153709181Y-117779500D01*
X153310830Y-117779500D01*
X153310808Y-117779501D01*
X153274796Y-117782335D01*
X153249093Y-117789802D01*
X153179223Y-117789601D01*
X153120554Y-117751658D01*
X153091712Y-117688019D01*
X153090500Y-117670725D01*
X153090500Y-117024500D01*
X153110185Y-116957461D01*
X153162989Y-116911706D01*
X153214500Y-116900500D01*
X155520943Y-116900500D01*
X156525500Y-116900500D01*
X156592539Y-116920185D01*
X156638294Y-116972989D01*
X156649500Y-117024500D01*
X156649500Y-118207870D01*
X156649501Y-118207876D01*
X156655908Y-118267483D01*
X156706202Y-118402328D01*
X156706206Y-118402335D01*
X156792452Y-118517544D01*
X156792455Y-118517547D01*
X156907664Y-118603793D01*
X156907671Y-118603797D01*
X157042517Y-118654091D01*
X157042516Y-118654091D01*
X157049444Y-118654835D01*
X157102127Y-118660500D01*
X158897872Y-118660499D01*
X158957483Y-118654091D01*
X159092331Y-118603796D01*
X159207546Y-118517546D01*
X159293796Y-118402331D01*
X159344091Y-118267483D01*
X159350500Y-118207873D01*
X159350499Y-116412128D01*
X159344091Y-116352517D01*
X159293796Y-116217669D01*
X159293795Y-116217668D01*
X159293793Y-116217664D01*
X159207547Y-116102455D01*
X159207544Y-116102452D01*
X159092335Y-116016206D01*
X159092328Y-116016202D01*
X158960917Y-115967189D01*
X158904983Y-115925318D01*
X158880566Y-115859853D01*
X158895418Y-115791580D01*
X158916563Y-115763332D01*
X159030104Y-115649792D01*
X159155051Y-115477816D01*
X159251557Y-115288412D01*
X159317246Y-115086243D01*
X159350500Y-114876287D01*
X159350500Y-114663713D01*
X159317246Y-114453757D01*
X159251557Y-114251588D01*
X159155051Y-114062184D01*
X159155049Y-114062181D01*
X159155048Y-114062179D01*
X159030109Y-113890213D01*
X158879786Y-113739890D01*
X158707820Y-113614951D01*
X158707115Y-113614591D01*
X158699054Y-113610485D01*
X158648259Y-113562512D01*
X158631463Y-113494692D01*
X158653999Y-113428556D01*
X158699054Y-113389515D01*
X158707816Y-113385051D01*
X158841069Y-113288238D01*
X158879786Y-113260109D01*
X158879788Y-113260106D01*
X158879792Y-113260104D01*
X159030104Y-113109792D01*
X159030106Y-113109788D01*
X159030109Y-113109786D01*
X159155048Y-112937820D01*
X159155047Y-112937820D01*
X159155051Y-112937816D01*
X159251557Y-112748412D01*
X159317246Y-112546243D01*
X159350500Y-112336287D01*
X159350500Y-112123713D01*
X159317246Y-111913757D01*
X159251557Y-111711588D01*
X159155051Y-111522184D01*
X159155049Y-111522181D01*
X159155048Y-111522179D01*
X159030109Y-111350213D01*
X158879786Y-111199890D01*
X158707820Y-111074951D01*
X158518414Y-110978444D01*
X158518413Y-110978443D01*
X158518412Y-110978443D01*
X158316243Y-110912754D01*
X158316241Y-110912753D01*
X158316240Y-110912753D01*
X158154957Y-110887208D01*
X158106287Y-110879500D01*
X157893713Y-110879500D01*
X157845042Y-110887208D01*
X157683760Y-110912753D01*
X157481585Y-110978444D01*
X157292179Y-111074951D01*
X157120213Y-111199890D01*
X156969890Y-111350213D01*
X156842085Y-111526125D01*
X156840740Y-111525148D01*
X156838408Y-111527257D01*
X156834095Y-111536703D01*
X156812939Y-111550298D01*
X156794295Y-111567166D01*
X156782491Y-111569866D01*
X156775317Y-111574477D01*
X156740382Y-111579500D01*
X156550808Y-111579500D01*
X156483769Y-111559815D01*
X156463127Y-111543181D01*
X152265351Y-107345405D01*
X152231866Y-107284082D01*
X152236850Y-107214390D01*
X152246302Y-107194600D01*
X152251743Y-107185399D01*
X152251744Y-107185398D01*
X152297598Y-107027569D01*
X152300500Y-106990694D01*
X152300500Y-105609306D01*
X152297598Y-105572431D01*
X152291226Y-105550500D01*
X152251745Y-105414606D01*
X152251744Y-105414603D01*
X152251744Y-105414602D01*
X152168081Y-105273135D01*
X152168079Y-105273133D01*
X152168076Y-105273129D01*
X152051870Y-105156923D01*
X152051862Y-105156917D01*
X151921450Y-105079792D01*
X151910398Y-105073256D01*
X151910397Y-105073255D01*
X151910396Y-105073255D01*
X151910393Y-105073254D01*
X151752573Y-105027402D01*
X151752567Y-105027401D01*
X151715701Y-105024500D01*
X151715694Y-105024500D01*
X151284306Y-105024500D01*
X151284298Y-105024500D01*
X151247432Y-105027401D01*
X151247426Y-105027402D01*
X151089606Y-105073253D01*
X151063119Y-105088918D01*
X150995394Y-105106098D01*
X150936881Y-105088918D01*
X150910393Y-105073253D01*
X150752573Y-105027402D01*
X150752567Y-105027401D01*
X150715701Y-105024500D01*
X150715694Y-105024500D01*
X150284306Y-105024500D01*
X150284298Y-105024500D01*
X150247432Y-105027401D01*
X150247426Y-105027402D01*
X150089606Y-105073253D01*
X150063119Y-105088918D01*
X149995394Y-105106098D01*
X149936881Y-105088918D01*
X149910393Y-105073253D01*
X149752573Y-105027402D01*
X149752567Y-105027401D01*
X149715701Y-105024500D01*
X149715694Y-105024500D01*
X149284306Y-105024500D01*
X149284298Y-105024500D01*
X149247432Y-105027401D01*
X149247426Y-105027402D01*
X149089606Y-105073254D01*
X149089603Y-105073255D01*
X148948137Y-105156917D01*
X148948129Y-105156923D01*
X148831923Y-105273129D01*
X148831917Y-105273137D01*
X148748255Y-105414603D01*
X148748254Y-105414606D01*
X148702402Y-105572426D01*
X148702401Y-105572432D01*
X148699500Y-105609298D01*
X148699500Y-106990701D01*
X148702401Y-107027567D01*
X148702402Y-107027573D01*
X148748254Y-107185393D01*
X148748255Y-107185396D01*
X148831917Y-107326862D01*
X148831923Y-107326870D01*
X148863180Y-107358126D01*
X148896666Y-107419448D01*
X148899500Y-107445808D01*
X148899500Y-108261860D01*
X148899499Y-108261878D01*
X148899499Y-108427584D01*
X148899498Y-108427584D01*
X148940423Y-108580315D01*
X148969358Y-108630430D01*
X148969359Y-108630434D01*
X148969360Y-108630434D01*
X149019479Y-108717244D01*
X149019481Y-108717247D01*
X149138349Y-108836115D01*
X149138355Y-108836120D01*
X150141160Y-109838925D01*
X150174645Y-109900248D01*
X150175096Y-109902414D01*
X150205996Y-110057756D01*
X150205999Y-110057766D01*
X150266337Y-110203437D01*
X150266344Y-110203450D01*
X150353945Y-110334553D01*
X150353948Y-110334557D01*
X150465442Y-110446051D01*
X150465446Y-110446054D01*
X150596549Y-110533655D01*
X150596562Y-110533662D01*
X150742233Y-110594000D01*
X150742238Y-110594002D01*
X150896888Y-110624764D01*
X150896891Y-110624765D01*
X150896893Y-110624765D01*
X151054579Y-110624765D01*
X151054580Y-110624764D01*
X151209232Y-110594002D01*
X151354914Y-110533659D01*
X151467827Y-110458213D01*
X151534504Y-110437335D01*
X151601884Y-110455819D01*
X151624399Y-110473634D01*
X152365425Y-111214660D01*
X152398910Y-111275983D01*
X152399361Y-111278149D01*
X152430261Y-111433491D01*
X152430264Y-111433501D01*
X152490602Y-111579172D01*
X152490609Y-111579185D01*
X152578210Y-111710288D01*
X152578213Y-111710292D01*
X152689707Y-111821786D01*
X152689711Y-111821789D01*
X152820814Y-111909390D01*
X152820827Y-111909397D01*
X152918853Y-111950000D01*
X152966503Y-111969737D01*
X153121153Y-112000499D01*
X153121156Y-112000500D01*
X153121158Y-112000500D01*
X153278844Y-112000500D01*
X153278845Y-112000499D01*
X153433497Y-111969737D01*
X153546166Y-111923067D01*
X153579172Y-111909397D01*
X153579172Y-111909396D01*
X153579179Y-111909394D01*
X153710289Y-111821789D01*
X153821789Y-111710289D01*
X153909394Y-111579179D01*
X153969737Y-111433497D01*
X154000500Y-111278842D01*
X154000500Y-111219808D01*
X154020185Y-111152769D01*
X154072989Y-111107014D01*
X154142147Y-111097070D01*
X154205703Y-111126095D01*
X154212181Y-111132127D01*
X154942373Y-111862319D01*
X154975858Y-111923642D01*
X154970874Y-111993334D01*
X154942373Y-112037681D01*
X154366873Y-112613181D01*
X154305550Y-112646666D01*
X154279192Y-112649500D01*
X153085829Y-112649500D01*
X152960162Y-112674497D01*
X152960159Y-112674498D01*
X152960157Y-112674498D01*
X152960156Y-112674499D01*
X152941163Y-112682365D01*
X152922821Y-112689963D01*
X152875372Y-112699400D01*
X152352129Y-112699400D01*
X152352123Y-112699401D01*
X152292516Y-112705808D01*
X152157671Y-112756102D01*
X152157664Y-112756106D01*
X152042455Y-112842352D01*
X152042452Y-112842355D01*
X151956206Y-112957564D01*
X151956202Y-112957571D01*
X151905908Y-113092416D01*
X151900799Y-113139937D01*
X151891504Y-113162374D01*
X151886342Y-113186107D01*
X151875890Y-113200069D01*
X151874060Y-113204488D01*
X151865192Y-113214361D01*
X151712478Y-113367074D01*
X151651157Y-113400558D01*
X151581466Y-113395574D01*
X151525532Y-113353703D01*
X151501115Y-113288238D01*
X151500799Y-113279392D01*
X151500799Y-113152029D01*
X151500798Y-113152023D01*
X151494391Y-113092416D01*
X151444097Y-112957571D01*
X151444093Y-112957564D01*
X151357847Y-112842355D01*
X151357844Y-112842352D01*
X151242635Y-112756106D01*
X151242628Y-112756102D01*
X151107782Y-112705808D01*
X151107783Y-112705808D01*
X151048183Y-112699401D01*
X151048181Y-112699400D01*
X151048173Y-112699400D01*
X151048164Y-112699400D01*
X149552429Y-112699400D01*
X149552423Y-112699401D01*
X149492816Y-112705808D01*
X149357971Y-112756102D01*
X149357964Y-112756106D01*
X149242755Y-112842352D01*
X149242752Y-112842355D01*
X149156506Y-112957564D01*
X149156502Y-112957571D01*
X149106210Y-113092413D01*
X149106209Y-113092417D01*
X149099800Y-113152027D01*
X149099800Y-113152034D01*
X149099800Y-113152035D01*
X149099800Y-113747770D01*
X149099801Y-113747776D01*
X149106208Y-113807383D01*
X149156502Y-113942228D01*
X149156506Y-113942235D01*
X149242752Y-114057444D01*
X149242755Y-114057447D01*
X149357964Y-114143693D01*
X149357971Y-114143697D01*
X149492817Y-114193991D01*
X149492816Y-114193991D01*
X149499744Y-114194735D01*
X149552427Y-114200400D01*
X150579791Y-114200399D01*
X150601037Y-114206637D01*
X150623125Y-114208217D01*
X150633907Y-114216288D01*
X150646830Y-114220083D01*
X150661331Y-114236819D01*
X150679058Y-114250089D01*
X150683764Y-114262707D01*
X150692585Y-114272887D01*
X150695736Y-114294805D01*
X150703475Y-114315553D01*
X150700612Y-114328713D01*
X150702529Y-114342046D01*
X150693329Y-114362189D01*
X150688623Y-114383826D01*
X150675354Y-114401551D01*
X150673504Y-114405602D01*
X150667472Y-114412080D01*
X150618171Y-114461381D01*
X150556848Y-114494866D01*
X150530490Y-114497700D01*
X149552329Y-114497700D01*
X149552323Y-114497701D01*
X149492716Y-114504108D01*
X149357871Y-114554402D01*
X149357869Y-114554403D01*
X149327081Y-114577451D01*
X149261616Y-114601867D01*
X149193344Y-114587014D01*
X149189652Y-114584916D01*
X149126395Y-114547506D01*
X149126391Y-114547505D01*
X149126390Y-114547504D01*
X148970997Y-114502357D01*
X148970991Y-114502356D01*
X148934697Y-114499500D01*
X148934690Y-114499500D01*
X148465310Y-114499500D01*
X148465302Y-114499500D01*
X148429008Y-114502356D01*
X148429002Y-114502357D01*
X148273609Y-114547504D01*
X148273606Y-114547505D01*
X148134315Y-114629881D01*
X148134307Y-114629887D01*
X148019887Y-114744307D01*
X148019881Y-114744315D01*
X147937505Y-114883606D01*
X147937504Y-114883609D01*
X147892357Y-115039002D01*
X147892356Y-115039008D01*
X147889500Y-115075302D01*
X147889500Y-115484697D01*
X147892356Y-115520991D01*
X147892357Y-115520997D01*
X147937504Y-115676390D01*
X147937505Y-115676393D01*
X148019881Y-115815684D01*
X148019887Y-115815692D01*
X148134307Y-115930112D01*
X148134311Y-115930115D01*
X148134313Y-115930117D01*
X148273605Y-116012494D01*
X148286368Y-116016202D01*
X148429002Y-116057642D01*
X148429005Y-116057642D01*
X148429007Y-116057643D01*
X148465310Y-116060500D01*
X148465318Y-116060500D01*
X148934682Y-116060500D01*
X148934690Y-116060500D01*
X148965971Y-116058038D01*
X149034348Y-116072402D01*
X149084105Y-116121453D01*
X149099700Y-116181656D01*
X149099700Y-116447769D01*
X149099701Y-116447776D01*
X149106108Y-116507383D01*
X149156402Y-116642228D01*
X149156406Y-116642235D01*
X149242652Y-116757444D01*
X149242655Y-116757447D01*
X149357864Y-116843693D01*
X149357871Y-116843697D01*
X149492717Y-116893991D01*
X149492716Y-116893991D01*
X149499644Y-116894735D01*
X149552327Y-116900400D01*
X150280292Y-116900399D01*
X150347331Y-116920083D01*
X150393086Y-116972887D01*
X150403030Y-117042046D01*
X150374005Y-117105602D01*
X150367973Y-117112080D01*
X149984727Y-117495325D01*
X149984724Y-117495328D01*
X149953683Y-117541784D01*
X149953684Y-117541785D01*
X149913534Y-117601874D01*
X149864499Y-117720255D01*
X149864497Y-117720261D01*
X149839500Y-117845928D01*
X149839500Y-118004314D01*
X149822232Y-118067434D01*
X149767133Y-118160602D01*
X149767129Y-118160611D01*
X149722335Y-118314791D01*
X149722334Y-118314797D01*
X149719500Y-118350811D01*
X149719500Y-118849169D01*
X149719501Y-118849191D01*
X149722335Y-118885205D01*
X149767129Y-119039388D01*
X149767131Y-119039393D01*
X149832232Y-119149473D01*
X149849500Y-119212594D01*
X149849500Y-120634484D01*
X149832232Y-120697605D01*
X149748255Y-120839603D01*
X149748254Y-120839606D01*
X149702402Y-120997426D01*
X149702401Y-120997432D01*
X149699500Y-121034298D01*
X149699500Y-122415701D01*
X149702401Y-122452567D01*
X149702402Y-122452573D01*
X149748254Y-122610393D01*
X149748255Y-122610396D01*
X149832232Y-122752394D01*
X149836338Y-122766207D01*
X149842831Y-122775397D01*
X149847600Y-122804089D01*
X149849381Y-122810078D01*
X149849500Y-122812789D01*
X149849500Y-122964069D01*
X149856170Y-122997598D01*
X149858017Y-123006886D01*
X149858018Y-123006894D01*
X149874497Y-123089736D01*
X149874499Y-123089744D01*
X149922102Y-123204669D01*
X149923535Y-123208127D01*
X149994723Y-123314669D01*
X149994726Y-123314673D01*
X150785324Y-124105271D01*
X150785331Y-124105277D01*
X150891871Y-124176464D01*
X150891870Y-124176464D01*
X150926544Y-124190826D01*
X151010256Y-124225501D01*
X151010260Y-124225501D01*
X151010261Y-124225502D01*
X151135928Y-124250500D01*
X151135931Y-124250500D01*
X152764068Y-124250500D01*
X152764069Y-124250500D01*
X152767672Y-124249783D01*
X152769600Y-124249955D01*
X152770134Y-124249903D01*
X152770143Y-124250004D01*
X152837263Y-124256006D01*
X152892443Y-124298866D01*
X152915692Y-124364754D01*
X152899628Y-124432752D01*
X152879553Y-124459079D01*
X152857288Y-124481344D01*
X152765187Y-124630663D01*
X152765186Y-124630666D01*
X152710001Y-124797203D01*
X152710001Y-124797204D01*
X152710000Y-124797204D01*
X152699500Y-124899983D01*
X152699500Y-126300001D01*
X152699501Y-126300018D01*
X152710000Y-126402796D01*
X152710001Y-126402799D01*
X152760731Y-126555891D01*
X152765186Y-126569334D01*
X152790518Y-126610404D01*
X152808958Y-126677796D01*
X152788035Y-126744459D01*
X152734393Y-126789229D01*
X152684979Y-126799500D01*
X149315021Y-126799500D01*
X149247982Y-126779815D01*
X149202227Y-126727011D01*
X149192283Y-126657853D01*
X149209481Y-126610405D01*
X149234814Y-126569334D01*
X149289999Y-126402797D01*
X149300500Y-126300009D01*
X149300499Y-124899992D01*
X149289999Y-124797203D01*
X149234814Y-124630666D01*
X149142712Y-124481344D01*
X149018656Y-124357288D01*
X148869334Y-124265186D01*
X148702797Y-124210001D01*
X148702795Y-124210000D01*
X148600010Y-124199500D01*
X147799998Y-124199500D01*
X147799980Y-124199501D01*
X147697203Y-124210000D01*
X147697200Y-124210001D01*
X147530668Y-124265185D01*
X147530663Y-124265187D01*
X147381342Y-124357289D01*
X147257289Y-124481342D01*
X147165187Y-124630663D01*
X147165186Y-124630666D01*
X147110001Y-124797203D01*
X147110001Y-124797204D01*
X147110000Y-124797204D01*
X147099500Y-124899983D01*
X147099500Y-126300001D01*
X147099501Y-126300018D01*
X147110000Y-126402796D01*
X147110001Y-126402799D01*
X147160731Y-126555891D01*
X147165186Y-126569334D01*
X147190518Y-126610404D01*
X147208958Y-126677796D01*
X147188035Y-126744459D01*
X147134393Y-126789229D01*
X147084979Y-126799500D01*
X143006092Y-126799500D01*
X142993938Y-126798903D01*
X142856180Y-126785335D01*
X142832339Y-126780593D01*
X142705728Y-126742186D01*
X142683272Y-126732884D01*
X142566592Y-126670517D01*
X142546381Y-126657012D01*
X142444108Y-126573079D01*
X142426920Y-126555891D01*
X142342987Y-126453618D01*
X142329482Y-126433407D01*
X142267113Y-126316722D01*
X142257813Y-126294271D01*
X142219404Y-126167654D01*
X142214665Y-126143824D01*
X142201097Y-126006060D01*
X142200500Y-125993907D01*
X142200500Y-123693713D01*
X142599500Y-123693713D01*
X142599500Y-123906287D01*
X142632754Y-124116243D01*
X142681148Y-124265185D01*
X142698444Y-124318414D01*
X142794951Y-124507820D01*
X142919890Y-124679786D01*
X143070213Y-124830109D01*
X143242179Y-124955048D01*
X143242181Y-124955049D01*
X143242184Y-124955051D01*
X143431588Y-125051557D01*
X143633757Y-125117246D01*
X143843713Y-125150500D01*
X143843714Y-125150500D01*
X144056286Y-125150500D01*
X144056287Y-125150500D01*
X144266243Y-125117246D01*
X144468412Y-125051557D01*
X144657816Y-124955051D01*
X144679789Y-124939086D01*
X144829786Y-124830109D01*
X144829788Y-124830106D01*
X144829792Y-124830104D01*
X144980104Y-124679792D01*
X144980106Y-124679788D01*
X144980109Y-124679786D01*
X145105048Y-124507820D01*
X145105047Y-124507820D01*
X145105051Y-124507816D01*
X145201557Y-124318412D01*
X145267246Y-124116243D01*
X145300500Y-123906287D01*
X145300500Y-123693713D01*
X145267246Y-123483757D01*
X145201557Y-123281588D01*
X145105051Y-123092184D01*
X145105049Y-123092181D01*
X145105048Y-123092179D01*
X144980109Y-122920213D01*
X144829786Y-122769890D01*
X144657820Y-122644951D01*
X144468414Y-122548444D01*
X144468413Y-122548443D01*
X144468412Y-122548443D01*
X144266243Y-122482754D01*
X144266241Y-122482753D01*
X144266240Y-122482753D01*
X144104957Y-122457208D01*
X144056287Y-122449500D01*
X143843713Y-122449500D01*
X143795042Y-122457208D01*
X143633760Y-122482753D01*
X143431585Y-122548444D01*
X143242179Y-122644951D01*
X143070213Y-122769890D01*
X142919890Y-122920213D01*
X142794951Y-123092179D01*
X142698444Y-123281585D01*
X142632753Y-123483760D01*
X142599500Y-123693713D01*
X142200500Y-123693713D01*
X142200500Y-104093713D01*
X142599500Y-104093713D01*
X142599500Y-104306286D01*
X142632753Y-104516239D01*
X142698444Y-104718414D01*
X142794951Y-104907820D01*
X142919890Y-105079786D01*
X143070213Y-105230109D01*
X143242179Y-105355048D01*
X143242181Y-105355049D01*
X143242184Y-105355051D01*
X143431588Y-105451557D01*
X143633757Y-105517246D01*
X143843713Y-105550500D01*
X143843714Y-105550500D01*
X144056286Y-105550500D01*
X144056287Y-105550500D01*
X144266243Y-105517246D01*
X144468412Y-105451557D01*
X144657816Y-105355051D01*
X144770562Y-105273137D01*
X144829786Y-105230109D01*
X144829788Y-105230106D01*
X144829792Y-105230104D01*
X144980104Y-105079792D01*
X144980106Y-105079788D01*
X144980109Y-105079786D01*
X145105048Y-104907820D01*
X145105047Y-104907820D01*
X145105051Y-104907816D01*
X145201557Y-104718412D01*
X145267246Y-104516243D01*
X145300500Y-104306287D01*
X145300500Y-104093713D01*
X156699500Y-104093713D01*
X156699500Y-104306286D01*
X156732753Y-104516239D01*
X156798444Y-104718414D01*
X156894951Y-104907820D01*
X157019890Y-105079786D01*
X157170213Y-105230109D01*
X157342179Y-105355048D01*
X157342181Y-105355049D01*
X157342184Y-105355051D01*
X157531588Y-105451557D01*
X157733757Y-105517246D01*
X157943713Y-105550500D01*
X157943714Y-105550500D01*
X158156286Y-105550500D01*
X158156287Y-105550500D01*
X158366243Y-105517246D01*
X158568412Y-105451557D01*
X158757816Y-105355051D01*
X158870562Y-105273137D01*
X158929786Y-105230109D01*
X158929788Y-105230106D01*
X158929792Y-105230104D01*
X159080104Y-105079792D01*
X159080106Y-105079788D01*
X159080109Y-105079786D01*
X159205048Y-104907820D01*
X159205047Y-104907820D01*
X159205051Y-104907816D01*
X159301557Y-104718412D01*
X159367246Y-104516243D01*
X159400500Y-104306287D01*
X159400500Y-104093713D01*
X159367246Y-103883757D01*
X159301557Y-103681588D01*
X159205051Y-103492184D01*
X159205049Y-103492181D01*
X159205048Y-103492179D01*
X159080109Y-103320213D01*
X158929786Y-103169890D01*
X158757820Y-103044951D01*
X158568414Y-102948444D01*
X158568413Y-102948443D01*
X158568412Y-102948443D01*
X158366243Y-102882754D01*
X158366241Y-102882753D01*
X158366240Y-102882753D01*
X158204957Y-102857208D01*
X158156287Y-102849500D01*
X157943713Y-102849500D01*
X157895042Y-102857208D01*
X157733760Y-102882753D01*
X157531585Y-102948444D01*
X157342179Y-103044951D01*
X157170213Y-103169890D01*
X157019890Y-103320213D01*
X156894951Y-103492179D01*
X156798444Y-103681585D01*
X156732753Y-103883760D01*
X156699500Y-104093713D01*
X145300500Y-104093713D01*
X145267246Y-103883757D01*
X145201557Y-103681588D01*
X145105051Y-103492184D01*
X145105049Y-103492181D01*
X145105048Y-103492179D01*
X144980109Y-103320213D01*
X144829786Y-103169890D01*
X144657820Y-103044951D01*
X144468414Y-102948444D01*
X144468413Y-102948443D01*
X144468412Y-102948443D01*
X144266243Y-102882754D01*
X144266241Y-102882753D01*
X144266240Y-102882753D01*
X144104957Y-102857208D01*
X144056287Y-102849500D01*
X143843713Y-102849500D01*
X143795042Y-102857208D01*
X143633760Y-102882753D01*
X143431585Y-102948444D01*
X143242179Y-103044951D01*
X143070213Y-103169890D01*
X142919890Y-103320213D01*
X142794951Y-103492179D01*
X142698444Y-103681585D01*
X142632753Y-103883760D01*
X142599500Y-104093713D01*
X142200500Y-104093713D01*
X142200500Y-102006092D01*
X142201097Y-101993939D01*
X142209805Y-101905519D01*
X142214665Y-101856173D01*
X142219404Y-101832347D01*
X142257815Y-101705721D01*
X142267111Y-101683280D01*
X142329485Y-101566586D01*
X142342987Y-101546381D01*
X142348907Y-101539168D01*
X142426924Y-101444103D01*
X142444103Y-101426924D01*
X142546382Y-101342985D01*
X142566586Y-101329485D01*
X142683280Y-101267111D01*
X142705721Y-101257815D01*
X142832347Y-101219404D01*
X142856173Y-101214665D01*
X142985170Y-101201960D01*
X142993939Y-101201097D01*
X143006092Y-101200500D01*
X143039882Y-101200500D01*
X147100399Y-101200500D01*
X147167438Y-101220185D01*
G37*
%TD.AperFunction*%
%TD*%
M02*
